<?xml version="1.0" encoding="UTF-8"?>
<svg xmlns:inkscape="http://www.inkscape.org/namespaces/inkscape" viewBox="0 0 368.504 226.772" xmlns:xlink="http://www.w3.org/1999/xlink" width="368.504pt" height="226.772pt" xmlns="http://www.w3.org/2000/svg" version="1.1">
 <defs/>
 <g inkscape:groupmode="layer" inkscape:label="Hintergrund" id="Hintergrund">
  <path style="fill:#005b87; fill-rule:nonzero;stroke:none;" transform="translate(18.8937, 24.2461)" d="M0 132.362 L0 0 L32.8347 0 L32.8347 107.284 L82.0078 107.284 L82.0078 132.362 L0 132.362 Z M114.272 88.3466 C114.272 96.7225 108.819 100.905 97.933 100.905 L56.9488 100.905 C46.0532 100.905 40.6102 96.7225 40.6102 88.3466 L40.6102 0 L73.4449 0 L73.4449 75.8268 L81.4371 75.8268 L81.4371 0 L114.272 0 L114.272 88.3466 Z M195.876 100.905 L138.553 100.905 C127.655 100.905 122.214 96.7225 122.214 88.3466 L122.214 12.7165 C122.214 4.24213 127.655 0 138.553 0 L179.537 0 C190.423 0 195.876 4.24213 195.876 12.7165 L195.876 29.8425 L163.041 29.8425 L163.041 25.2756 L155.049 25.2756 L155.049 75.8268 L163.041 75.8268 L163.041 37.7954 L195.876 37.7954 L195.876 100.905 Z"/>
  <path style="fill:#00a293; fill-rule:nonzero;stroke:none;" transform="translate(238.894, 24.3248)" d="M0 132.362 L0 0 L32.8343 0 L32.8343 107.283 L82.0084 107.283 L82.0084 132.362 L0 132.362 Z M81.8018 25.2757 L73.8094 25.2757 L73.8094 75.8269 L81.8018 75.8269 L81.8018 25.2757 Z M114.636 88.3464 C114.636 96.7224 109.183 100.906 98.2982 100.906 L40.9754 100.906 L40.9754 0 L98.2982 0 C109.183 0 114.636 4.23966 114.636 12.7165 L114.636 88.3464 Z"/>
  <path style="fill:#1a1b1f; fill-rule:nonzero;stroke:none;" transform="translate(17.2106, 172.74)" d="M0 22.2836 L0 0.66948 L2.95275 0.66948 L2.95275 19.6039 L12.7559 19.6039 L12.7559 22.2836 L0 22.2836 Z M18.1496 0.472693 C18.6417 0.472693 19.0551 0.649827 19.3701 0.984441 C19.7047 1.32888 19.8819 1.74236 19.8819 2.20472 C19.8819 2.7069 19.7047 3.12995 19.3701 3.46457 C19.0551 3.80926 18.6417 3.97657 18.1496 3.97657 C17.6772 3.97657 17.2638 3.80926 16.9291 3.46457 C16.5822 3.12995 16.4173 2.7069 16.4173 2.20472 C16.4173 1.74236 16.5822 1.32888 16.9291 0.984441 C17.2638 0.649827 17.6772 0.472693 18.1496 0.472693 Z M16.6142 22.2836 L16.6142 8.8189 L14.4488 8.8189 L14.4488 6.45694 L19.4094 6.45694 L19.4094 22.2836 L16.6142 22.2836 Z M33.7303 22.2836 L33.7303 13.0711 C33.7303 11.3978 33.4645 10.2264 32.9429 9.56699 C32.441 8.88794 31.5944 8.5435 30.4233 8.5435 C29.7639 8.5435 29.0747 8.75011 28.376 9.13386 C27.6871 9.50803 27.1653 9.97065 26.8012 10.5119 L26.8012 22.2836 L24.0059 22.2836 L24.0059 6.45694 L25.8956 6.45694 L26.8012 8.50394 C27.7166 6.95887 29.2224 6.18129 31.3288 6.18129 C34.7836 6.18129 36.5257 8.2875 36.5257 12.4805 L36.5257 22.2836 L33.7303 22.2836 Z M43.3661 6.45694 L43.3661 16.5357 C43.3661 18.974 44.4292 20.197 46.555 20.197 C47.4704 20.197 48.307 19.941 49.0747 19.4096 C49.8523 18.8878 50.3741 18.2677 50.6102 17.5592 L50.6102 6.45694 L53.4056 6.45694 L53.4056 22.2836 L50.6102 22.2836 L50.6102 20.0789 C50.2953 20.7088 49.658 21.2896 48.7205 21.8137 C47.7756 22.3327 46.8405 22.5986 45.9251 22.5986 C44.1928 22.5986 42.8642 22.1065 41.9488 21.1024 C41.0236 20.1083 40.5708 18.691 40.5708 16.8506 L40.5708 6.45694 L43.3661 6.45694 Z M67.067 22.2836 L62.7755 16.5357 L58.9174 22.2836 L55.6496 22.2836 L61.3582 14.1732 L56.122 6.45694 L59.2716 6.45694 L62.8151 11.8899 L66.7914 6.45694 L69.8621 6.45694 L64.1535 14.1732 L70.4134 22.2836 L67.067 22.2836 Z M82.2146 0.66948 L85.1672 0.66948 L85.1672 15.4726 C85.1672 16.7914 85.5807 17.884 86.427 18.7404 C87.2638 19.5868 88.376 20.0003 89.7737 20.0003 C91.2107 20.0003 92.3523 19.5966 93.1989 18.7797 C94.0355 17.9429 94.4588 16.8111 94.4588 15.3938 L94.4588 0.66948 L97.4114 0.66948 L97.4114 15.7087 C97.4114 17.8938 96.7225 19.5966 95.3641 20.827 C93.9962 22.0374 92.1261 22.6379 89.7737 22.6379 C87.3523 22.6379 85.4922 22.0472 84.183 20.8637 C82.8642 19.6654 82.2146 17.9331 82.2146 15.6694 L82.2146 0.66948 Z M100.787 21.3387 L101.811 18.6641 C103.356 19.6853 104.616 20.197 105.591 20.197 C107.313 20.197 108.189 19.4784 108.189 18.0341 C108.189 16.9882 107.342 16.0927 105.669 15.3545 C104.38 14.754 103.511 14.3111 103.071 14.016 C102.618 13.7109 102.224 13.3465 101.89 12.9529 C101.545 12.5689 101.289 12.1557 101.142 11.7349 C100.984 11.2894 100.905 10.817 100.905 10.3151 C100.905 9.00611 101.378 7.99219 102.323 7.28365 C103.258 6.55521 104.498 6.18129 106.024 6.18129 C107.175 6.18129 108.632 6.55521 110.394 7.28365 L109.606 9.88195 C108.474 8.99628 107.342 8.5435 106.22 8.5435 C105.561 8.5435 104.99 8.7108 104.527 9.01594 C104.075 9.3309 103.858 9.7343 103.858 10.1969 C103.858 11.2207 104.429 11.9982 105.591 12.5198 L107.598 13.4254 C108.829 13.9764 109.724 14.626 110.276 15.3545 C110.847 16.063 111.142 16.9587 111.142 18.0341 C111.142 19.4489 110.64 20.571 109.646 21.378 C108.642 22.1949 107.264 22.5986 105.512 22.5986 C103.831 22.5986 102.251 22.1851 100.787 21.3387 Z M127.53 14.6459 L116.11 14.6459 C116.11 16.5158 116.624 17.9331 117.648 18.8976 C118.533 19.7639 119.695 20.197 121.112 20.197 C122.707 20.197 124.045 19.7443 125.128 18.819 L126.309 20.827 C125.856 21.2797 125.187 21.6635 124.299 21.9686 C123.169 22.3821 121.919 22.5986 120.561 22.5986 C118.563 22.5986 116.87 21.9195 115.48 20.5538 C113.927 19.0652 113.159 17.0671 113.159 14.5645 C113.159 11.9489 113.957 9.84517 115.561 8.26532 C116.968 6.88 118.652 6.18129 120.601 6.18129 C122.854 6.18129 124.619 6.82104 125.879 8.07106 C127.126 9.31124 127.768 10.9352 127.768 12.9529 C127.768 13.5632 127.677 14.1241 127.53 14.6459 Z M120.718 8.5435 C119.459 8.5435 118.406 8.95672 117.569 9.76378 C116.752 10.5315 116.289 11.4764 116.191 12.5984 L124.97 12.5984 C124.97 11.4764 124.606 10.5315 123.907 9.76378 C123.12 8.95672 122.047 8.5435 120.718 8.5435 Z M139.478 9.17342 C138.868 8.75994 138.248 8.5435 137.628 8.5435 C136.624 8.5435 135.758 9.00611 135.029 9.92151 C134.291 10.8465 133.927 11.9489 133.927 13.2283 L133.927 22.2836 L131.092 22.2836 L131.092 6.45694 L133.927 6.45694 L133.927 8.97663 C134.941 7.11635 136.457 6.18129 138.455 6.18129 C138.976 6.18129 139.715 6.27956 140.659 6.45694 L139.478 9.17342 Z M167.185 2.16542 L165.965 4.60649 C164.468 3.51395 163.002 2.95282 161.595 2.95282 C159.331 2.95282 157.549 3.75987 156.24 5.35433 C154.921 6.92913 154.272 9.03559 154.272 11.6535 C154.272 14.1732 154.911 16.2008 156.201 17.7141 C157.48 19.2423 159.232 20.0003 161.437 20.0003 C163.002 20.0003 164.282 19.5276 165.256 18.5827 L165.256 13.504 L162.264 13.504 L162.264 10.9843 L168.209 10.9843 L168.209 20.4331 C167.421 21.0925 166.309 21.634 164.902 22.0472 C163.504 22.4312 162.136 22.6379 160.807 22.6379 C157.835 22.6379 155.485 21.634 153.76 19.6039 C152.028 17.5887 151.162 14.9017 151.162 11.5356 C151.162 8.20888 152.106 5.50198 153.996 3.42526 C155.876 1.32888 158.445 0.275654 161.673 0.275654 C163.927 0.275654 165.768 0.915402 167.185 2.16542 Z M181.24 9.17342 C180.63 8.75994 180.01 8.5435 179.39 8.5435 C178.386 8.5435 177.52 9.00611 176.791 9.92151 C176.053 10.8465 175.689 11.9489 175.689 13.2283 L175.689 22.2836 L172.854 22.2836 L172.854 6.45694 L175.689 6.45694 L175.689 8.97663 C176.703 7.11635 178.218 6.18129 180.217 6.18129 C180.738 6.18129 181.476 6.27956 182.421 6.45694 L181.24 9.17342 Z M183.484 14.331 C183.484 11.8997 184.134 9.92151 185.453 8.42532 C186.782 6.93921 188.524 6.18129 190.65 6.18129 C192.923 6.18129 194.685 6.90948 195.925 8.34671 C197.175 9.79351 197.815 11.7914 197.815 14.331 C197.815 16.8801 197.165 18.9077 195.886 20.3938 C194.596 21.8701 192.844 22.5986 190.65 22.5986 C188.386 22.5986 186.624 21.8505 185.374 20.3545 C184.114 18.8682 183.484 16.8506 183.484 14.331 Z M186.437 14.331 C186.437 18.2974 187.835 20.2757 190.65 20.2757 C191.959 20.2757 192.982 19.7541 193.721 18.7009 C194.478 17.628 194.862 16.1713 194.862 14.331 C194.862 10.4234 193.455 8.46463 190.65 8.46463 C189.39 8.46463 188.356 8.99628 187.579 10.0394 C186.811 11.0632 186.437 12.5002 186.437 14.331 Z M203.612 6.45694 L203.612 16.5357 C203.612 18.974 204.675 20.197 206.801 20.197 C207.717 20.197 208.553 19.941 209.321 19.4096 C210.098 18.8878 210.62 18.2677 210.856 17.5592 L210.856 6.45694 L213.651 6.45694 L213.651 22.2836 L210.856 22.2836 L210.856 20.0789 C210.541 20.7088 209.902 21.2896 208.967 21.8137 C208.022 22.3327 207.087 22.5986 206.171 22.5986 C204.439 22.5986 203.11 22.1065 202.195 21.1024 C201.27 20.1083 200.817 18.691 200.817 16.8506 L200.817 6.45694 L203.612 6.45694 Z M220.502 21.4173 L220.502 28.5042 L217.707 28.5042 L217.707 6.45694 L220.502 6.45694 L220.502 7.75609 C221.545 6.71269 222.835 6.18129 224.36 6.18129 C226.585 6.18129 228.337 6.88 229.597 8.26532 C230.847 9.66551 231.486 11.7128 231.486 14.4096 C231.486 16.8307 230.847 18.7994 229.597 20.3152 C228.337 21.8406 226.506 22.5986 224.124 22.5986 C223.435 22.5986 222.717 22.4706 221.959 22.2443 C221.191 21.9883 220.709 21.7126 220.502 21.4173 Z M220.502 9.88195 L220.502 19.0947 C220.677 19.3603 221.053 19.6163 221.604 19.8425 C222.175 20.0789 222.746 20.197 223.297 20.197 C226.782 20.197 228.533 18.2284 228.533 14.2914 C228.533 12.3034 228.11 10.8465 227.274 9.92151 C226.457 9.00611 225.128 8.5435 223.297 8.5435 C222.904 8.5435 222.411 8.69115 221.84 8.97663 C221.289 9.2422 220.837 9.54734 220.502 9.88195 Z M244.134 22.2836 L244.134 0.66948 L247.087 0.66948 L247.087 19.6039 L256.891 19.6039 L256.891 22.2836 L244.134 22.2836 Z M268.345 20.4724 C267.214 21.89 265.493 22.5986 263.19 22.5986 C261.93 22.5986 260.837 22.1556 259.922 21.2601 C259.025 20.3447 258.581 19.2126 258.581 17.8741 C258.581 16.2797 259.272 14.9213 260.67 13.819 C262.076 12.6969 263.878 12.1262 266.062 12.1262 C266.634 12.1262 267.302 12.2638 268.071 12.5198 C268.071 9.98047 266.919 8.70098 264.646 8.70098 C262.883 8.70098 261.524 9.18324 260.59 10.1183 L259.41 7.75609 C259.932 7.31313 260.67 6.94904 261.615 6.65373 C262.55 6.3486 263.465 6.18129 264.331 6.18129 C266.604 6.18129 268.267 6.71269 269.29 7.75609 C270.336 8.77959 270.865 10.4431 270.865 12.7166 L270.865 18.3859 C270.865 19.7836 271.281 20.699 272.125 21.1419 L272.125 22.5592 C270.966 22.5592 270.099 22.3919 269.527 22.0868 C268.975 21.7522 268.572 21.2107 268.345 20.4724 Z M268.071 14.5277 C267.176 14.3209 266.556 14.2128 266.221 14.2128 C264.803 14.2128 263.631 14.5867 262.716 15.3151 C261.822 16.0532 261.378 16.9194 261.378 17.9134 C261.378 19.5475 262.343 20.3545 264.291 20.3545 C265.7 20.3545 266.97 19.6853 268.071 18.3441 L268.071 14.5277 Z M285.207 22.2836 L285.207 13.0711 C285.207 11.3978 284.94 10.2264 284.418 9.56699 C283.917 8.88794 283.07 8.5435 281.899 8.5435 C281.241 8.5435 280.551 8.75011 279.853 9.13386 C279.162 9.50803 278.641 9.97065 278.278 10.5119 L278.278 22.2836 L275.481 22.2836 L275.481 6.45694 L277.371 6.45694 L278.278 8.50394 C279.193 6.95887 280.699 6.18129 282.806 6.18129 C286.26 6.18129 288.001 8.2875 288.001 12.4805 L288.001 22.2836 L285.207 22.2836 Z M302.215 22.2836 L302.215 21.1024 C301.24 22.077 299.824 22.5592 297.962 22.5592 C295.994 22.5592 294.389 21.8505 293.159 20.4331 C291.919 19.0256 291.31 17.126 291.31 14.7638 C291.31 12.4115 292.018 10.3839 293.436 8.70098 C294.842 7.02765 296.546 6.18129 298.513 6.18129 C300.139 6.18129 301.368 6.56504 302.215 7.32548 L302.215 0 L305.05 0 L305.05 22.2836 L302.215 22.2836 Z M302.215 10.1183 C301.507 9.0749 300.532 8.5435 299.302 8.5435 C297.805 8.5435 296.576 9.1142 295.639 10.2365 C294.714 11.3386 294.263 12.766 294.263 14.4882 C294.263 18.2974 295.994 20.197 299.458 20.197 C299.902 20.197 300.423 20.069 301.033 19.8032 C301.653 19.5177 302.056 19.2126 302.215 18.8976 L302.215 10.1183 Z M318.18 20.4724 C317.048 21.89 315.325 22.5986 313.022 22.5986 C311.762 22.5986 310.668 22.1556 309.754 21.2601 C308.859 20.3447 308.416 19.2126 308.416 17.8741 C308.416 16.2797 309.104 14.9213 310.502 13.819 C311.911 12.6969 313.71 12.1262 315.897 12.1262 C316.466 12.1262 317.136 12.2638 317.902 12.5198 C317.902 9.98047 316.751 8.70098 314.478 8.70098 C312.717 8.70098 311.359 9.18324 310.424 10.1183 L309.242 7.75609 C309.764 7.31313 310.502 6.94904 311.447 6.65373 C312.382 6.3486 313.296 6.18129 314.163 6.18129 C316.436 6.18129 318.101 6.71269 319.124 7.75609 C320.168 8.77959 320.699 10.4431 320.699 12.7166 L320.699 18.3859 C320.699 19.7836 321.113 20.699 321.959 21.1419 L321.959 22.5592 C320.798 22.5592 319.931 22.3919 319.361 22.0868 C318.81 21.7522 318.406 21.2107 318.18 20.4724 Z M317.902 14.5277 C317.008 14.3209 316.388 14.2128 316.053 14.2128 C314.637 14.2128 313.465 14.5867 312.548 15.3151 C311.654 16.0532 311.21 16.9194 311.21 17.9134 C311.21 19.5475 312.175 20.3545 314.123 20.3545 C315.531 20.3545 316.801 19.6853 317.902 18.3441 L317.902 14.5277 Z M327.953 6.45694 L327.953 16.5357 C327.953 18.974 329.017 20.197 331.141 20.197 C332.058 20.197 332.895 19.941 333.661 19.4096 C334.439 18.8878 334.961 18.2677 335.198 17.5592 L335.198 6.45694 L337.992 6.45694 L337.992 22.2836 L335.198 22.2836 L335.198 20.0789 C334.883 20.7088 334.243 21.2896 333.308 21.8137 C332.363 22.3327 331.428 22.5986 330.511 22.5986 C328.78 22.5986 327.452 22.1065 326.535 21.1024 C325.61 20.1083 325.157 18.691 325.157 16.8506 L325.157 6.45694 L327.953 6.45694 Z"/>
 </g>
</svg>
